<?xml version="1.0" encoding="UTF-8"?>
<!-- Logo VAVI® – originální vektor (z VAVI logo.svg), ořezaný viewBoxem těsně na nápis -->
<svg xmlns="http://www.w3.org/2000/svg" version="1.1"
     viewBox="3850 9950 12240 3600" width="1224" height="360"
     role="img" aria-label="VAVI"
     style="shape-rendering:geometricPrecision; fill-rule:evenodd; clip-rule:evenodd">
    <g fill="#1D1D1B" fill-rule="nonzero">
        <polygon points="3931.9,10030.4 4373.88,10030.4 5567.16,12759.47 6738.35,10030.4 7180.29,10030.4 5688.68,13477.65 5423.51,13477.65 "/>
        <polygon points="7611.21,13466.62 7169.22,13466.62 8660.83,10030.4 8926,10030.4 10417.61,13477.65 9975.67,13477.65 8793.46,10748.58 7611.25,13477.65 "/>
        <polygon points="10417.61,10030.4 10859.56,10030.4 12052.83,12759.47 13224.02,10030.4 13665.96,10030.4 12174.35,13477.65 11909.22,13477.65 "/>
        <polygon points="14096.88,10030.4 14505.71,10030.4 14505.71,13477.65 14096.88,13477.65 "/>
    </g>
    <path fill="#1D1D1B" fill-rule="nonzero" d="M16008.34 10450.25c0,243.08 -198.9,430.92 -441.94,430.92 -243.04,0 -441.94,-187.84 -441.94,-430.92 0,-243.08 198.9,-430.92 441.94,-430.92 243.04,0 441.94,187.84 441.94,430.92zm-773.43 0c0,187.83 143.65,342.51 331.49,342.51 187.83,0 331.49,-154.68 331.49,-342.51 0,-187.84 -143.66,-342.51 -331.49,-342.51 -187.84,0 -331.49,154.67 -331.49,342.51zm265.17 232.06l-99.43 0 0 -430.92c44.19,0 99.43,-11.07 165.75,-11.07 66.31,0 121.52,11.07 143.65,33.16 22.09,22.09 44.18,55.25 44.18,88.41 0,33.15 -44.18,88.4 -88.4,99.42l0 0c44.18,22.1 66.31,55.25 77.34,110.5 11.06,66.31 22.09,88.41 33.15,99.43l-99.43 0c-11.06,-11.07 -22.09,-55.25 -33.15,-99.43 0,-44.18 -33.16,-66.31 -88.41,-66.31l-44.18 0 0 165.74 -11.07 11.07zm11.07 -243.09l44.18 0c55.25,0 99.43,-22.09 99.43,-66.31 0,-44.22 -33.16,-66.31 -88.4,-66.31 -55.25,0 -44.19,0 -55.25,0l0 121.52 0.04 11.1z"/>
</svg>
